<?xml version="1.0" encoding="UTF-8"?>
<svg xmlns="http://www.w3.org/2000/svg" xmlns:xlink="http://www.w3.org/1999/xlink" width="39pt" height="39pt" viewBox="0 0 39 39" version="1.1">
<g id="surface1">
<path style=" stroke:none;fill-rule:nonzero;fill:rgb(0%,0%,0%);fill-opacity:1;" d="M 24.222656 1.175781 C 23.847656 1.277344 23.496094 1.492188 23.175781 1.816406 C 22.816406 2.175781 22.582031 2.597656 22.371094 3.261719 C 22.195312 3.800781 22.167969 4.03125 22.167969 4.769531 C 22.167969 5.394531 22.171875 5.460938 22.25 5.769531 C 22.433594 6.496094 22.722656 7.015625 23.199219 7.457031 C 23.605469 7.839844 24.050781 7.960938 24.59375 7.84375 C 25.433594 7.667969 26.207031 6.796875 26.523438 5.667969 C 26.652344 5.203125 26.695312 4.902344 26.710938 4.371094 C 26.734375 3.617188 26.625 3.023438 26.371094 2.488281 C 26.066406 1.851562 25.550781 1.339844 25.054688 1.1875 C 24.816406 1.113281 24.46875 1.109375 24.222656 1.175781 Z M 24.222656 1.175781 "/>
<path style=" stroke:none;fill-rule:nonzero;fill:rgb(0%,0%,0%);fill-opacity:1;" d="M 30.476562 3.050781 C 29.523438 3.164062 28.566406 3.894531 27.945312 4.992188 C 27.363281 6.011719 27.175781 7.058594 27.410156 7.964844 C 27.566406 8.5625 27.957031 9.0625 28.457031 9.304688 C 28.648438 9.394531 28.675781 9.398438 29.023438 9.398438 C 29.464844 9.398438 29.726562 9.332031 30.179688 9.113281 C 30.945312 8.738281 31.597656 8.046875 32.019531 7.160156 C 32.199219 6.777344 32.304688 6.480469 32.410156 6.023438 C 32.480469 5.730469 32.488281 5.613281 32.488281 5.210938 C 32.488281 4.785156 32.480469 4.710938 32.40625 4.464844 C 32.285156 4.0625 32.109375 3.746094 31.875 3.507812 C 31.488281 3.121094 31.0625 2.980469 30.476562 3.050781 Z M 30.476562 3.050781 "/>
<path style=" stroke:none;fill-rule:nonzero;fill:rgb(0%,0%,0%);fill-opacity:1;" d="M 7.09375 3.167969 C 6.84375 3.179688 6.636719 3.195312 6.628906 3.207031 C 6.597656 3.234375 6.554688 5.226562 6.515625 8.269531 C 6.480469 11.351562 6.507812 15.402344 6.585938 18.441406 C 6.613281 19.71875 6.621094 19.761719 6.757812 19.820312 C 6.859375 19.867188 9.660156 19.925781 12.355469 19.945312 C 14.921875 19.960938 16.820312 19.9375 16.871094 19.882812 C 16.914062 19.839844 16.894531 15.410156 16.851562 15.332031 C 16.769531 15.179688 16.742188 15.175781 15.152344 15.144531 C 14.335938 15.128906 13.351562 15.113281 12.964844 15.113281 L 12.265625 15.113281 L 12.261719 11.722656 C 12.257812 8.65625 12.222656 5.664062 12.167969 3.996094 C 12.148438 3.378906 12.148438 3.371094 12.070312 3.285156 L 11.988281 3.199219 L 11.226562 3.167969 C 10.394531 3.136719 7.808594 3.136719 7.09375 3.167969 Z M 7.09375 3.167969 "/>
<path style=" stroke:none;fill-rule:nonzero;fill:rgb(0%,0%,0%);fill-opacity:1;" d="M 18.753906 5.359375 C 18.355469 5.472656 18.039062 5.710938 17.796875 6.085938 C 17.34375 6.773438 17.125 7.722656 17.207031 8.601562 C 17.328125 9.796875 17.875 10.78125 18.730469 11.324219 C 19.0625 11.539062 19.464844 11.605469 19.851562 11.515625 C 20.210938 11.433594 20.628906 11.15625 20.859375 10.835938 C 21.644531 9.773438 21.75 8.105469 21.113281 6.808594 C 20.726562 6.015625 20.199219 5.496094 19.636719 5.347656 C 19.402344 5.285156 18.984375 5.292969 18.753906 5.359375 Z M 18.753906 5.359375 "/>
<path style=" stroke:none;fill-rule:nonzero;fill:rgb(0%,0%,0%);fill-opacity:1;" d="M 32.460938 9.355469 C 32.234375 9.394531 31.820312 9.53125 31.613281 9.632812 C 31.042969 9.917969 30.429688 10.464844 30.066406 11.015625 C 29.789062 11.429688 29.511719 12.015625 29.425781 12.351562 C 29.328125 12.75 29.328125 13.351562 29.425781 13.695312 C 29.660156 14.507812 30.210938 14.929688 31.050781 14.929688 C 31.5 14.929688 31.871094 14.839844 32.328125 14.609375 C 33.023438 14.257812 33.65625 13.628906 34.085938 12.859375 C 34.242188 12.578125 34.453125 12.003906 34.507812 11.714844 C 34.566406 11.390625 34.554688 10.878906 34.476562 10.585938 C 34.347656 10.101562 34.027344 9.671875 33.652344 9.480469 C 33.367188 9.339844 32.875 9.285156 32.460938 9.355469 Z M 32.460938 9.355469 "/>
<path style=" stroke:none;fill-rule:nonzero;fill:rgb(0%,0%,0%);fill-opacity:1;" d="M 23.882812 10.484375 C 22.894531 10.578125 21.996094 10.9375 21.144531 11.574219 C 20.089844 12.363281 19.257812 13.207031 18.613281 14.121094 C 18.332031 14.519531 17.957031 15.171875 17.886719 15.386719 C 17.789062 15.664062 17.769531 16.152344 17.839844 16.464844 C 17.957031 17 18.335938 17.515625 18.769531 17.726562 C 19.261719 17.96875 19.957031 18.054688 20.945312 18 C 21.28125 17.984375 21.832031 17.96875 22.167969 17.96875 C 22.734375 17.96875 22.808594 17.972656 23.242188 18.066406 C 24.117188 18.246094 24.625 18.523438 25.589844 19.367188 C 26.582031 20.226562 26.8125 20.390625 27.285156 20.535156 C 27.582031 20.628906 28.039062 20.648438 28.316406 20.585938 C 28.820312 20.464844 29.179688 20.183594 29.394531 19.742188 C 29.601562 19.328125 29.652344 19.089844 29.667969 18.433594 C 29.6875 17.664062 29.613281 17.085938 29.371094 16.132812 C 28.839844 14.027344 28.3125 12.835938 27.472656 11.832031 C 26.808594 11.035156 25.9375 10.601562 24.773438 10.484375 C 24.421875 10.449219 24.269531 10.449219 23.882812 10.484375 Z M 23.882812 10.484375 "/>
<path style=" stroke:none;fill-rule:nonzero;fill:rgb(0%,0%,0%);fill-opacity:1;" d="M 7.523438 20.761719 C 7.515625 20.765625 7.164062 20.78125 6.738281 20.789062 C 6.308594 20.800781 5.957031 20.8125 5.949219 20.820312 C 5.929688 20.84375 6.320312 23.226562 6.613281 24.832031 C 7.078125 27.402344 7.914062 31.414062 8.898438 35.769531 C 9.109375 36.707031 9.253906 37.277344 9.289062 37.324219 C 9.320312 37.367188 9.378906 37.417969 9.421875 37.4375 C 9.515625 37.484375 11.695312 37.539062 13.496094 37.539062 C 14.730469 37.535156 16.875 37.492188 16.902344 37.46875 C 16.929688 37.433594 17.816406 33.480469 18.265625 31.367188 C 19.003906 27.894531 19.824219 23.523438 20.15625 21.335938 C 20.203125 20.992188 20.1875 20.902344 20.0625 20.847656 C 19.898438 20.769531 16.113281 20.726562 15.386719 20.792969 C 15.34375 20.796875 15.207031 20.804688 15.082031 20.804688 L 14.851562 20.808594 L 14.765625 21.242188 C 14.375 23.21875 13.960938 25.820312 13.484375 29.296875 C 13.167969 31.582031 13.175781 31.53125 13.152344 31.445312 C 13.140625 31.402344 13.027344 30.613281 12.902344 29.691406 C 12.359375 25.71875 11.613281 21.191406 11.46875 20.96875 C 11.378906 20.828125 11.273438 20.8125 10.277344 20.78125 C 9.371094 20.753906 7.550781 20.738281 7.523438 20.761719 Z M 7.523438 20.761719 "/>
<path style=" stroke:none;fill-rule:nonzero;fill:rgb(0%,0%,0%);fill-opacity:1;" d="M 22.644531 20.78125 C 21.867188 20.792969 21.222656 20.8125 21.210938 20.828125 C 21.167969 20.875 21.113281 24.105469 21.09375 27.566406 C 21.074219 31.222656 21.148438 37.152344 21.21875 37.289062 C 21.238281 37.332031 21.285156 37.386719 21.328125 37.417969 C 21.398438 37.46875 21.558594 37.480469 23.308594 37.523438 C 26.285156 37.59375 28.445312 37.609375 30.34375 37.570312 C 31.714844 37.546875 32.097656 37.53125 32.117188 37.5 C 32.152344 37.449219 32.148438 33.273438 32.117188 33.078125 C 32.085938 32.886719 32.027344 32.839844 31.820312 32.8125 C 31.722656 32.800781 30.507812 32.777344 29.121094 32.765625 L 26.597656 32.746094 L 26.597656 31.320312 L 30.195312 31.320312 L 30.195312 29.328125 C 30.195312 27.148438 30.199219 27.199219 30.019531 27.121094 C 29.957031 27.09375 29.582031 27.078125 28.535156 27.070312 C 27.761719 27.058594 27.011719 27.046875 26.859375 27.039062 L 26.585938 27.023438 L 26.601562 25.601562 L 29.242188 25.582031 C 30.699219 25.574219 31.929688 25.554688 31.980469 25.546875 L 32.074219 25.527344 L 32.09375 24.410156 C 32.101562 23.796875 32.101562 22.773438 32.089844 22.144531 L 32.070312 20.992188 L 31.984375 20.910156 C 31.902344 20.828125 31.886719 20.824219 31.449219 20.804688 C 30.742188 20.769531 24.203125 20.753906 22.644531 20.78125 Z M 22.644531 20.78125 "/>
</g>
</svg>
